<?xml version="1.0" standalone="no"?><!DOCTYPE svg PUBLIC "-//W3C//DTD SVG 1.1//EN" "http://www.w3.org/Graphics/SVG/1.1/DTD/svg11.dtd"><svg t="1739794462388" class="icon" viewBox="0 0 1024 1024" version="1.1" xmlns="http://www.w3.org/2000/svg" p-id="4226" xmlns:xlink="http://www.w3.org/1999/xlink" width="200" height="200"><path d="M512 1014.153846c277.336615 0 502.153846-224.817231 502.153846-502.153846S789.336615 9.846154 512 9.846154 9.846154 234.663385 9.846154 512s224.817231 502.153846 502.153846 502.153846z m0-39.384615C256.423385 974.769231 49.230769 767.576615 49.230769 512S256.423385 49.230769 512 49.230769s462.769231 207.192615 462.769231 462.769231-207.192615 462.769231-462.769231 462.769231z" fill="#2c2c2c" p-id="4227"></path><path d="M465.900308 743.808C480.984615 746.791385 496.403692 748.307692 512 748.307692c130.510769 0 236.307692-105.796923 236.307692-236.307692S642.510769 275.692308 512 275.692308 275.692308 381.489231 275.692308 512c0 15.596308 1.516308 31.015385 4.499692 46.099692a19.692308 19.692308 0 1 0 38.636308-7.650461A197.976615 197.976615 0 0 1 315.076923 512c0-108.760615 88.162462-196.923077 196.923077-196.923077s196.923077 88.162462 196.923077 196.923077-88.162462 196.923077-196.923077 196.923077c-13.026462 0-25.895385-1.260308-38.449231-3.741539a19.692308 19.692308 0 1 0-7.650461 38.626462z" fill="#2c2c2c" p-id="4228"></path><path d="M512 512m-78.769231 0a78.769231 78.769231 0 1 0 157.538462 0 78.769231 78.769231 0 1 0-157.538462 0Z" fill="#2c2c2c" p-id="4229"></path><path d="M512.196923 502.882462C400.128 546.973538 324.923077 655.389538 324.923077 777.846154a19.692308 19.692308 0 1 0 39.384615 0c0-106.141538 65.181538-200.103385 162.304-238.316308a19.692308 19.692308 0 1 0-14.424615-36.647384z" fill="#2c2c2c" p-id="4230"></path></svg>